<svg version="1" xmlns="http://www.w3.org/2000/svg" width="1333.333" height="1333.333" viewBox="0 0 1000.000000 1000.000000"><path d="M477 1c-68.3 3.3-133.5 19.9-194.5 49.4C159.2 110 66.4 217 24.1 348.2 8.3 397.4.8 446.1.8 499.5.8 543.7 5 579.2 15.1 620 42.2 729.3 105.6 826.3 195 895.6c42.3 32.7 92.6 59.7 144.4 77.3 103.7 35.4 217.5 35.4 321.2 0 21.9-7.4 37.6-14 59.9-24.9 119-58.3 209.5-161.4 252.4-287.4 50.2-147.3 28.4-310.1-58.8-440-30.2-45-72.3-89.1-115.6-121.1C705.4 30.5 590.8-4.6 477 1zM230.4 251c8.6 3.3 15.2 10.5 29.7 32.5 6.8 10.4 55 83.9 106.9 163.2l94.5 144.2.5-158.2.5-158.2 3.4-6.3c4.1-7.6 10.4-13.5 17.9-17 4.8-2.3 7.1-2.7 14.7-2.7 7.8 0 9.9.4 15.2 2.9 7.3 3.3 15.3 11.2 18.6 18.3l2.2 4.8.5 160.5.5 160.5L641.9 433c58.6-89.4 108.4-165 110.8-168.1 5.4-7.2 9.5-10.6 16.1-13.6 18.3-8.1 39.4 0 48 18.5l2.7 5.7v449l-3.3 6.7c-9 18.4-30.1 25.7-48.7 16.8-7.1-3.4-13.1-9.3-17.2-17.2l-2.8-5.3-.5-158.9-.5-158.9-106.9 163.1c-74.5 113.8-108.3 164.5-111.5 167.5-6.4 6-12.6 9.4-20.5 11.4-5.7 1.4-7.7 1.4-13.5.4-8.6-1.5-17.6-6.7-24-13.7-2.5-2.8-52.3-77.9-110.6-166.9l-106-161.8-.5 158.4-.5 158.4-3.3 6.7c-6.3 12.8-17.9 20-32.2 20.2-12.8.1-23.6-5.4-30.7-15.8-6.8-9.9-6.3 8.1-6.1-237.6l.3-222.5 2.3-4.9c8.6-18.7 28.3-26.8 47.6-19.6z"/></svg>